<svg xmlns="http://www.w3.org/2000/svg" xmlns:xlink="http://www.w3.org/1999/xlink" width="2000" zoomAndPan="magnify" viewBox="0 0 1500 1499.999933" height="2000" preserveAspectRatio="xMidYMid meet" version="1.0"><defs><g/><clipPath id="2e661bc5cf"><path d="M 215 607.914062 L 502.929688 607.914062 L 502.929688 893 L 215 893 Z M 215 607.914062 " clip-rule="nonzero"/></clipPath><clipPath id="2ddb2e58d1"><path d="M 0.238281 143 L 1 143 L 1 144 L 0.238281 144 Z M 0.238281 143 " clip-rule="nonzero"/></clipPath><clipPath id="f30068e237"><rect x="0" width="863" y="0" height="183"/></clipPath><clipPath id="42cbeb60e1"><rect x="0" width="755" y="0" height="149"/></clipPath></defs><path fill="#f3f5f4" d="M 337.960938 892.667969 C 337.960938 892.667969 376.9375 893.011719 377.050781 892.839844 L 337.960938 784.164062 Z M 337.960938 892.667969 " fill-opacity="1" fill-rule="nonzero"/><path fill="#f3f5f4" d="M 467.671875 868.878906 L 467.671875 778.664062 L 430.300781 889 Z M 467.671875 868.878906 " fill-opacity="1" fill-rule="nonzero"/><g clip-path="url(#2e661bc5cf)"><path fill="#f3f5f4" d="M 313.203125 607.914062 L 306.324219 607.914062 L 306.496094 607.972656 C 266.890625 610.609375 230.207031 640.472656 220.234375 678.988281 C 214.445312 695.898438 216.679688 713.953125 216.222656 731.433594 C 215.761719 784.96875 215.933594 838.445312 215.878906 891.980469 C 226.023438 893.582031 236.398438 892.550781 246.597656 892.839844 C 262.015625 892.265625 277.492188 893.183594 292.910156 892.722656 C 292.96875 882.695312 292.910156 872.605469 292.910156 862.574219 C 292.910156 832.199219 292.910156 801.875 292.910156 771.5 C 292.96875 750.0625 292.910156 728.566406 292.910156 707.132812 C 316.125 708.21875 339.394531 707.1875 362.609375 707.703125 C 369.945312 728.222656 377.511719 748.6875 385.019531 769.148438 C 390.921875 785.542969 396.941406 801.875 402.960938 818.210938 C 415.167969 784.625 427.835938 751.207031 439.644531 717.449219 C 440.503906 716.703125 440.558594 715.441406 440.789062 714.410156 C 441.191406 713.265625 441.992188 710.972656 442.394531 709.824219 L 502.460938 709.824219 L 502.460938 607.914062 Z M 313.203125 607.914062 " fill-opacity="1" fill-rule="nonzero"/></g><g transform="matrix(1, 0, 0, 1, 450, 741)"><g clip-path="url(#f30068e237)"><g clip-path="url(#2ddb2e58d1)"><g fill="#f3f5f4" fill-opacity="1"><g transform="translate(0.298471, 143.072805)"><g/></g></g></g><g fill="#f3f5f4" fill-opacity="1"><g transform="translate(57.525939, 143.072805)"><g><path d="M 16.953125 0 L 16.953125 -127.5625 L 115.71875 -127.5625 L 115.71875 -114.984375 L 32.078125 -114.984375 L 32.078125 -69.984375 L 112.4375 -69.984375 L 112.4375 -57.40625 L 32.078125 -57.40625 L 32.078125 -12.75 L 115.71875 -12.75 L 115.71875 0 Z M 16.953125 0 "/></g></g></g><g fill="#f3f5f4" fill-opacity="1"><g transform="translate(191.46722, 143.072805)"><g><path d="M 16.953125 0 L 16.953125 -127.5625 L 32.25 -127.5625 L 121.921875 -20.59375 L 121.921875 -127.5625 L 136.859375 -127.5625 L 136.859375 0 L 121.546875 0 L 31.890625 -106.96875 L 31.890625 0 Z M 16.953125 0 "/></g></g></g><g fill="#f3f5f4" fill-opacity="1"><g transform="translate(352.743419, 143.072805)"><g><path d="M 76.359375 2.546875 C 66.515625 2.546875 57.492188 0.90625 49.296875 -2.375 C 41.097656 -5.65625 33.988281 -10.238281 27.96875 -16.125 C 21.957031 -22.019531 17.28125 -29.003906 13.9375 -37.078125 C 10.59375 -45.160156 8.921875 -54 8.921875 -63.59375 C 8.921875 -73.3125 10.59375 -82.238281 13.9375 -90.375 C 17.28125 -98.519531 21.957031 -105.566406 27.96875 -111.515625 C 33.988281 -117.472656 41.097656 -122.125 49.296875 -125.46875 C 57.492188 -128.8125 66.515625 -130.484375 76.359375 -130.484375 C 84.492188 -130.484375 92.414062 -129.238281 100.125 -126.75 C 107.84375 -124.257812 114.769531 -120.367188 120.90625 -115.078125 C 127.039062 -109.796875 131.566406 -102.960938 134.484375 -94.578125 L 121.546875 -91.84375 C 118.628906 -98.28125 114.800781 -103.351562 110.0625 -107.0625 C 105.332031 -110.769531 100.082031 -113.441406 94.3125 -115.078125 C 88.539062 -116.722656 82.554688 -117.546875 76.359375 -117.546875 C 66.148438 -117.546875 57.128906 -115.265625 49.296875 -110.703125 C 41.460938 -106.148438 35.328125 -99.800781 30.890625 -91.65625 C 26.453125 -83.519531 24.234375 -74.164062 24.234375 -63.59375 C 24.234375 -53.03125 26.453125 -43.738281 30.890625 -35.71875 C 35.328125 -27.695312 41.460938 -21.4375 49.296875 -16.9375 C 57.128906 -12.445312 66.148438 -10.203125 76.359375 -10.203125 C 82.191406 -10.203125 88.113281 -10.929688 94.125 -12.390625 C 100.132812 -13.847656 105.660156 -16.273438 110.703125 -19.671875 C 115.742188 -23.078125 119.539062 -27.757812 122.09375 -33.71875 L 122.09375 -55.40625 L 74.359375 -55.40625 L 74.359375 -67.96875 L 135.40625 -67.96875 L 135.40625 -31.15625 C 132 -22.894531 127.195312 -16.273438 121 -11.296875 C 114.800781 -6.316406 107.84375 -2.765625 100.125 -0.640625 C 92.414062 1.484375 84.492188 2.546875 76.359375 2.546875 Z M 76.359375 2.546875 "/></g></g></g><g fill="#f3f5f4" fill-opacity="1"><g transform="translate(510.010497, 143.072805)"><g><path d="M 17.125 0 L 17.125 -127.5625 L 32.078125 -127.5625 L 32.078125 0 Z M 17.125 0 "/></g></g></g><g fill="#f3f5f4" fill-opacity="1"><g transform="translate(566.502855, 143.072805)"><g><path d="M 16.953125 0 L 16.953125 -127.5625 L 32.25 -127.5625 L 121.921875 -20.59375 L 121.921875 -127.5625 L 136.859375 -127.5625 L 136.859375 0 L 121.546875 0 L 31.890625 -106.96875 L 31.890625 0 Z M 16.953125 0 "/></g></g></g><g fill="#f3f5f4" fill-opacity="1"><g transform="translate(727.779077, 143.072805)"><g><path d="M 16.953125 0 L 16.953125 -127.5625 L 115.71875 -127.5625 L 115.71875 -114.984375 L 32.078125 -114.984375 L 32.078125 -69.984375 L 112.4375 -69.984375 L 112.4375 -57.40625 L 32.078125 -57.40625 L 32.078125 -12.75 L 115.71875 -12.75 L 115.71875 0 Z M 16.953125 0 "/></g></g></g></g></g><g transform="matrix(1, 0, 0, 1, 517, 594)"><g clip-path="url(#42cbeb60e1)"><g fill="#f3f5f4" fill-opacity="1"><g transform="translate(0.656258, 116.613689)"><g><path d="M 7.421875 0 L 7.421875 -103.953125 L 27.46875 -103.953125 L 68.015625 -50.640625 L 108.703125 -103.953125 L 128.296875 -103.953125 L 128.296875 0 L 107.65625 0 L 107.65625 -57.765625 L 108.40625 -73.0625 L 73.5 -27.46875 L 62.078125 -27.46875 L 27.328125 -72.609375 L 28.0625 -57.03125 L 28.0625 0 Z M 7.421875 0 "/></g></g></g><g fill="#f3f5f4" fill-opacity="1"><g transform="translate(146.181507, 116.613689)"><g><path d="M 7.28125 0 L 7.28125 -103.953125 L 90.4375 -103.953125 L 90.4375 -86.28125 L 27.171875 -86.28125 L 27.171875 -60.4375 L 87.90625 -60.4375 L 87.90625 -43.359375 L 27.171875 -43.359375 L 27.171875 -17.671875 L 90.4375 -17.671875 L 90.4375 0 Z M 7.28125 0 "/></g></g></g><g fill="#f3f5f4" fill-opacity="1"><g transform="translate(249.53419, 116.613689)"><g><path d="M 7.421875 0 L 7.421875 -103.953125 L 27.46875 -103.953125 L 68.015625 -50.640625 L 108.703125 -103.953125 L 128.296875 -103.953125 L 128.296875 0 L 107.65625 0 L 107.65625 -57.765625 L 108.40625 -73.0625 L 73.5 -27.46875 L 62.078125 -27.46875 L 27.328125 -72.609375 L 28.0625 -57.03125 L 28.0625 0 Z M 7.421875 0 "/></g></g></g><g fill="#f3f5f4" fill-opacity="1"><g transform="translate(395.059419, 116.613689)"><g><path d="M 57.46875 1.484375 C 49.550781 1.484375 42.25 0.171875 35.5625 -2.453125 C 28.882812 -5.078125 23.09375 -8.8125 18.1875 -13.65625 C 13.289062 -18.507812 9.476562 -24.226562 6.75 -30.8125 C 4.03125 -37.394531 2.671875 -44.597656 2.671875 -52.421875 C 2.671875 -60.242188 4.03125 -67.421875 6.75 -73.953125 C 9.476562 -80.484375 13.289062 -86.148438 18.1875 -90.953125 C 23.09375 -95.753906 28.882812 -99.46875 35.5625 -102.09375 C 42.25 -104.71875 49.550781 -106.03125 57.46875 -106.03125 C 65.488281 -106.03125 72.835938 -104.71875 79.515625 -102.09375 C 86.203125 -99.46875 91.992188 -95.753906 96.890625 -90.953125 C 101.796875 -86.148438 105.582031 -80.484375 108.25 -73.953125 C 110.925781 -67.421875 112.265625 -60.242188 112.265625 -52.421875 C 112.265625 -44.597656 110.925781 -37.394531 108.25 -30.8125 C 105.582031 -24.226562 101.796875 -18.507812 96.890625 -13.65625 C 91.992188 -8.8125 86.203125 -5.078125 79.515625 -2.453125 C 72.835938 0.171875 65.488281 1.484375 57.46875 1.484375 Z M 57.46875 -16.1875 C 64.195312 -16.1875 70.132812 -17.769531 75.28125 -20.9375 C 80.4375 -24.101562 84.445312 -28.410156 87.3125 -33.859375 C 90.1875 -39.304688 91.625 -45.492188 91.625 -52.421875 C 91.625 -59.347656 90.1875 -65.535156 87.3125 -70.984375 C 84.445312 -76.429688 80.4375 -80.710938 75.28125 -83.828125 C 70.132812 -86.941406 64.195312 -88.5 57.46875 -88.5 C 50.832031 -88.5 44.941406 -86.941406 39.796875 -83.828125 C 34.648438 -80.710938 30.640625 -76.429688 27.765625 -70.984375 C 24.898438 -65.535156 23.46875 -59.347656 23.46875 -52.421875 C 23.46875 -45.492188 24.898438 -39.304688 27.765625 -33.859375 C 30.640625 -28.410156 34.648438 -24.101562 39.796875 -20.9375 C 44.941406 -17.769531 50.832031 -16.1875 57.46875 -16.1875 Z M 57.46875 -16.1875 "/></g></g></g><g fill="#f3f5f4" fill-opacity="1"><g transform="translate(520.389387, 116.613689)"><g><path d="M 7.421875 0 L 7.421875 -103.953125 L 61.1875 -103.953125 C 65.738281 -103.953125 70.734375 -103.359375 76.171875 -102.171875 C 81.617188 -100.984375 86.472656 -98.707031 90.734375 -95.34375 C 94.398438 -92.363281 97.222656 -88.625 99.203125 -84.125 C 101.179688 -79.625 102.171875 -75.046875 102.171875 -70.390625 C 102.171875 -65.835938 101.101562 -61.257812 98.96875 -56.65625 C 96.84375 -52.050781 93.847656 -48.164062 89.984375 -45 C 84.941406 -41.039062 78.457031 -38.863281 70.53125 -38.46875 L 103.359375 -0.890625 L 103.359375 0 L 80.046875 0 L 47.21875 -37.875 L 28.0625 -37.875 L 28.0625 0 Z M 28.0625 -54.796875 L 62.671875 -54.796875 C 68.703125 -54.796875 73.351562 -56.054688 76.625 -58.578125 C 79.894531 -61.109375 81.53125 -65.09375 81.53125 -70.53125 C 81.53125 -76.476562 79.546875 -80.613281 75.578125 -82.9375 C 71.617188 -85.257812 66.820312 -86.421875 61.1875 -86.421875 L 28.0625 -86.421875 Z M 28.0625 -54.796875 "/></g></g></g><g fill="#f3f5f4" fill-opacity="1"><g transform="translate(633.839724, 116.613689)"><g><path d="M 44.40625 0 L 44.40625 -40.546875 L -3.859375 -103.953125 L 20.203125 -103.953125 L 54.796875 -57.921875 L 89.546875 -103.953125 L 113.609375 -103.953125 L 65.1875 -40.546875 L 65.1875 0 Z M 44.40625 0 "/></g></g></g></g></g></svg>